<?xml version="1.0" encoding="utf-8"?>
<!-- Generator: Adobe Illustrator 22.0.1, SVG Export Plug-In . SVG Version: 6.00 Build 0)  -->
<svg class="icon" version="1.1" id="Layer_1" xmlns="http://www.w3.org/2000/svg" xmlns:xlink="http://www.w3.org/1999/xlink" x="0px" y="0px"
	 viewBox="0 0 34.1 34.1" style="enable-background:new 0 0 34.1 34.1;" xml:space="preserve">
<style type="text/css">
	.st0{fill:#FFFFFF;}
</style>
<title>Asset 4</title>
<g id="Layer_2_1_">
	<g id="Layer_1-2">
		<path class="st0" d="M17,0C7.6,0,0,7.6,0,17.1c0,9.4,7.6,17.1,17.1,17.1s17.1-7.6,17.1-17.1c0,0,0,0,0,0C34.1,7.6,26.5,0,17,0z
			 M18.9,21.9c-0.9,0-1.8-0.4-2.4-1.2c0,0-0.5,2.3-0.7,2.7c-0.4,1.2-1,2.2-1.8,3.2c0,0.1-0.1,0.1-0.2,0.1c0,0,0,0-0.1-0.1
			c-0.2-1.2-0.2-2.5,0-3.7c0.2-0.8,1.2-5.3,1.2-5.3c-0.2-0.5-0.3-1-0.3-1.6c0-1.4,0.8-2.5,1.9-2.5c0.7,0,1.3,0.6,1.3,1.3
			c0,0,0,0.1,0,0.1c-0.2,1.2-0.5,2.3-0.9,3.5c-0.2,0.8,0.3,1.6,1.1,1.8c0.1,0,0.3,0,0.4,0c1.8,0,3.1-2.4,3.1-5.2
			c0-2.1-1.4-3.7-4.1-3.7c-2.5-0.1-4.7,1.9-4.8,4.4c0,0.1,0,0.1,0,0.2c0,0.7,0.2,1.4,0.6,1.9c0.2,0.1,0.2,0.3,0.1,0.5
			c0,0.2-0.1,0.6-0.2,0.8c0,0.2-0.2,0.3-0.4,0.3c0,0-0.1,0-0.1,0c-1.4-0.5-2-2-2-3.7c0-2.8,2.3-6.1,7-6.1c3.7,0,6.2,2.7,6.2,5.6
			C24.1,19.1,22,21.9,18.9,21.9z"/>
	</g>
</g>
</svg>
