<?xml version="1.0" encoding="utf-8"?>
<!-- Generator: Adobe Illustrator 22.0.1, SVG Export Plug-In . SVG Version: 6.00 Build 0)  -->
<svg class="icon" version="1.1" id="Layer_1" xmlns="http://www.w3.org/2000/svg" xmlns:xlink="http://www.w3.org/1999/xlink" x="0px" y="0px"
	 viewBox="0 0 34.1 34.1" style="enable-background:new 0 0 34.1 34.1;" xml:space="preserve">
<style type="text/css">
	.st0{fill:#FFFFFF;}
</style>
<title>Asset 1</title>
<g id="Layer_2_1_">
	<g id="Layer_1-2">
		<path class="st0" d="M17,0C7.6,0,0,7.6,0,17.1c0,9.4,7.6,17.1,17.1,17.1s17.1-7.6,17.1-17.1c0,0,0,0,0,0C34.1,7.6,26.5,0,17,0z
			 M20.8,12.2H19c-0.6,0-0.8,0.2-0.8,0.9v1.6h2.5l-0.2,2.7h-2.3v8.1H15v-8.1h-1.7v-2.8H15v-2.2c0-2,1.1-3.1,3.5-3.1h2.2L20.8,12.2z"
			/>
	</g>
</g>
</svg>
