<?xml version="1.0" encoding="utf-8"?>
<!-- Generator: Adobe Illustrator 22.0.1, SVG Export Plug-In . SVG Version: 6.00 Build 0)  -->
<svg class="icon" version="1.1" id="Layer_1" xmlns="http://www.w3.org/2000/svg" xmlns:xlink="http://www.w3.org/1999/xlink" x="0px" y="0px"
	 viewBox="0 0 34.1 34.1" style="enable-background:new 0 0 34.1 34.1;" xml:space="preserve">
<style type="text/css">
	.st0{fill:#FFFFFF;}
</style>
<title>Asset 7</title>
<g id="Layer_2_1_">
	<g id="Layer_1-2">
		<path class="st0" d="M17,0C7.6,0,0,7.6,0,17.1c0,9.4,7.6,17.1,17.1,17.1s17.1-7.6,17.1-17.1c0,0,0,0,0,0C34.1,7.6,26.5,0,17,0z
			 M25.3,20.9L25.3,20.9c-0.1,0.1-0.3,0.3-0.5,0.3l0,0c-0.4,0.2-0.8,0.3-1.2,0.3l0,0c-0.1,0-0.2,0-0.3,0.1c-0.1,0.2-0.2,0.5-0.3,0.7
			l0,0l0,0c0,0,0,0.1-0.1,0.1c0,0.1-0.1,0.1-0.2,0.1 M22.9,22.5c-0.5-0.1-1-0.1-1.5-0.1l0,0c-0.2,0-0.5,0-0.7,0.1l0,0
			c-0.6,0.3-1.2,0.6-1.7,1l0,0c-0.3,0.2-0.6,0.4-1,0.5l0,0c-0.4,0-0.8,0-1.1,0l0,0c-0.5,0-0.9-0.2-1.3-0.5l0,0
			c-0.5-0.4-1.1-0.7-1.7-0.9c-0.6-0.1-1.2-0.1-1.8,0.1l0,0c-0.1,0-0.2,0-0.3,0c-0.1,0-0.1-0.1-0.1-0.1c-0.1-0.2-0.1-0.5-0.2-0.7
			c0-0.1-0.1-0.1-0.1-0.2c-0.2-0.1-0.5-0.1-0.7-0.2l0,0c-0.4-0.1-0.8-0.2-1.1-0.4l0,0c-0.1,0-0.1-0.1-0.2-0.1
			c-0.1-0.1-0.1-0.2-0.1-0.3l0,0c0.1-0.1,0.3-0.2,0.4-0.3l0,0c0.4-0.1,0.9-0.3,1.2-0.6c0.7-0.5,1.3-1.1,1.7-1.9l0,0
			c0.2-0.3,0.2-0.5,0.2-0.8c-0.1-0.2-0.3-0.4-0.5-0.5c-0.4-0.1-0.7-0.3-1.1-0.5l0,0l-0.2-0.1c-0.1-0.1-0.2-0.2-0.2-0.3l0,0l0,0
			c0-0.2,0.1-0.3,0.3-0.4l0,0c0.1-0.1,0.3-0.2,0.5-0.2l0,0c0.2,0.1,0.4,0.1,0.5,0.1l0,0c0.2,0,0.5,0,0.7,0l0,0c0-0.5,0-0.9,0-1.4
			c-0.1-0.7,0-1.5,0.2-2.1l0,0c0.3-0.7,0.8-1.3,1.4-1.8C15.3,9.3,16.3,9,17.3,9H18c0.7,0.1,1.4,0.3,2,0.7c0.8,0.6,1.4,1.5,1.7,2.5
			l0,0c0,0.6,0,1.2,0,1.8l0,0c0,0.4,0,0.8,0,1.1l0,0c0,0,0,0.1,0,0.1c0.2,0,0.4,0,0.6,0l0,0c0.2,0,0.4-0.1,0.5-0.1l0,0
			c0.2-0.1,0.4-0.1,0.6,0.1l0,0c0.1,0.1,0.3,0.2,0.3,0.3l0,0c0,0.1,0,0.2,0,0.3c0,0,0,0,0,0.1c0,0.1-0.1,0.1-0.1,0.2l0,0
			c-0.3,0.2-0.6,0.4-1,0.5l0,0c-0.3,0.1-0.5,0.2-0.7,0.5l0,0c-0.1,0.2-0.1,0.4,0,0.5l0,0c0.2,0.5,0.4,0.9,0.7,1.2
			c0.5,0.7,1.3,1.2,2.1,1.5l0,0c0.2,0,0.3,0.1,0.5,0.2l0,0c0.2,0,0.3,0.2,0.2,0.4c0,0,0,0.1-0.1,0.1L22.9,22.5z"/>
	</g>
</g>
</svg>
