<?xml version="1.0" encoding="utf-8"?>
<!-- Generator: Adobe Illustrator 22.0.1, SVG Export Plug-In . SVG Version: 6.00 Build 0)  -->
<svg class="icon" version="1.1" id="Layer_1" xmlns="http://www.w3.org/2000/svg" xmlns:xlink="http://www.w3.org/1999/xlink" x="0px" y="0px"
	 viewBox="0 0 34.1 34.1" style="enable-background:new 0 0 34.1 34.1;" xml:space="preserve">
<style type="text/css">
	.st0{fill:#FFFFFF;}
</style>
<title>Asset 6</title>
<g id="Layer_2_1_">
	<g id="Layer_1-2">
		<path class="st0" d="M17,0C7.6,0,0,7.6,0,17.1c0,9.4,7.6,17.1,17.1,17.1s17.1-7.6,17.1-17.1c0,0,0,0,0,0C34.1,7.6,26.5,0,17,0z
			 M22,24c-0.6,0.3-1.3,0.5-1.9,0.7c-0.6,0.1-1.2,0.2-1.9,0.2c-0.7,0-1.4-0.1-2-0.3c-0.5-0.2-1.1-0.5-1.5-0.8
			c-0.4-0.3-0.7-0.7-0.9-1.1c-0.2-0.6-0.3-1.2-0.2-1.8v-5.9h-1.8v-2.4c0.6-0.2,1.2-0.5,1.7-0.9c0.5-0.4,0.8-0.9,1.1-1.4
			c0.3-0.7,0.5-1.4,0.6-2.1h2.4v4.2h4v2.6h-4v4.3c0,0.6,0,1.3,0.2,1.9c0.1,0.3,0.3,0.5,0.6,0.7c0.4,0.2,0.8,0.3,1.3,0.3
			c0.9,0,1.8-0.3,2.5-0.8L22,24z"/>
	</g>
</g>
</svg>
