<?xml version="1.0" encoding="utf-8"?>
<!-- Generator: Adobe Illustrator 22.0.1, SVG Export Plug-In . SVG Version: 6.00 Build 0)  -->
<svg class="icon" version="1.1" id="Layer_1" xmlns="http://www.w3.org/2000/svg" xmlns:xlink="http://www.w3.org/1999/xlink" x="0px" y="0px"
	 viewBox="0 0 34.1 34.1" style="enable-background:new 0 0 34.1 34.1;" xml:space="preserve">
<style type="text/css">
	.st0{fill:#FFFFFF;}
</style>
<title>Asset 5</title>
<g id="Layer_2_1_">
	<g id="Layer_1-2">
		<path class="st0" d="M17,0C7.6,0,0,7.6,0,17.1c0,9.4,7.6,17.1,17.1,17.1s17.1-7.6,17.1-17.1c0,0,0,0,0,0C34.1,7.6,26.5,0,17,0z
			 M14.6,22.4c-3.3,0-6-2.6-6.1-5.9c0-3.3,2.6-6,5.9-6.1c1.6,0,3.2,0.6,4.3,1.8l-1.2,1.1c-1.8-1.6-4.5-1.5-6.1,0.2s-1.5,4.5,0.2,6.1
			c0.8,0.7,1.8,1.1,2.9,1.2c1.8,0,3.4-1.3,3.6-3.1h-3.7V16h5.5v0.6c0.2,3-2.1,5.5-5,5.7C14.9,22.4,14.8,22.4,14.6,22.4z M28,17.6
			h-2.2v2.3h-1.5v-2.3H22v-1.5h2.3v-2.3h1.5v2.3H28V17.6z"/>
	</g>
</g>
</svg>
