<svg class="icon" xmlns="http://www.w3.org/2000/svg" viewBox="0 0 34.11 34.11"><defs><style>.cls-1{fill:#231f20;}</style></defs><title>Asset 6</title><g id="Layer_2" data-name="Layer 2"><g id="Layer_1-2" data-name="Layer 1"><path class="cls-1" d="M17.05,0A17.06,17.06,0,1,0,34.11,17.05,17.06,17.06,0,0,0,17.05,0Zm5,24a10.06,10.06,0,0,1-1.94.7,8,8,0,0,1-1.87.2,6.6,6.6,0,0,1-2-.28,4.54,4.54,0,0,1-1.5-.83,3,3,0,0,1-.86-1.13,5,5,0,0,1-.24-1.75V15.05H11.81V12.68a5,5,0,0,0,1.68-.92,4.51,4.51,0,0,0,1.12-1.43,6.55,6.55,0,0,0,.58-2.12h2.36v4.23h4v2.61h-4v4.28a6.5,6.5,0,0,0,.16,1.87,1.29,1.29,0,0,0,.57.66,2.42,2.42,0,0,0,1.26.33,4.58,4.58,0,0,0,2.53-.83Z"/></g></g></svg>