<svg class="icon" xmlns="http://www.w3.org/2000/svg" viewBox="0 0 13.12 21.33"><defs><style>.cls-1{fill:#231f20;}</style></defs><title>Asset 6</title><g id="Layer_2" data-name="Layer 2"><g id="Layer_1-2" data-name="Layer 1"><path class="cls-1" d="M2.34,16.23a6.42,6.42,0,0,0,.3,2.23,3.83,3.83,0,0,0,1.1,1.45A5.57,5.57,0,0,0,5.66,21a8.46,8.46,0,0,0,2.58.36,10.72,10.72,0,0,0,2.4-.25,13.43,13.43,0,0,0,2.48-.91V16.82a5.86,5.86,0,0,1-3.23,1.05,3.1,3.1,0,0,1-1.62-.42,1.65,1.65,0,0,1-.73-.84,8.9,8.9,0,0,1-.19-2.39V8.75h5.06V5.4H7.35V0h-3a8.24,8.24,0,0,1-.74,2.72A5.81,5.81,0,0,1,2.15,4.54,6.19,6.19,0,0,1,0,5.71v3H2.34Z"/></g></g></svg>