<svg class="icon" xmlns="http://www.w3.org/2000/svg" viewBox="0 0 35.35 34.87"><defs><style>.cls-1{fill:#010101;}</style></defs><title>Asset 1</title><g id="Layer_2" data-name="Layer 2"><g id="Layer_1-2" data-name="Layer 1"><path class="cls-1" d="M24.07,17.42a9.2,9.2,0,0,1-6.4,2.79A8.51,8.51,0,0,1,13,18.77a10.42,10.42,0,0,1-1.71-1.36A17.69,17.69,0,0,0,0,33.87a1,1,0,0,0,1,1H34.35a1,1,0,0,0,1-1,.75.75,0,0,0,0-.21A17.68,17.68,0,0,0,24.07,17.42Z"/><path class="cls-1" d="M11.78,15a8.78,8.78,0,0,0,2.29,2.11,6.59,6.59,0,0,0,3.6,1.12c4.68,0,8.31-5.32,8.31-9.89a8.32,8.32,0,1,0-16.63,0,11.1,11.1,0,0,0,2.36,6.58Z"/></g></g></svg>