<svg class="icon" xmlns="http://www.w3.org/2000/svg" viewBox="0 0 34.11 34.11"><defs><style>.cls-1{fill:#231f20;}</style></defs><title>Asset 2</title><g id="Layer_2" data-name="Layer 2"><g id="Layer_1-2" data-name="Layer 1"><path class="cls-1" d="M17.05,0A17.06,17.06,0,1,0,34.11,17.05,17.06,17.06,0,0,0,17.05,0Zm6.43,15.25A7.56,7.56,0,0,1,11.85,22a5.32,5.32,0,0,0,3.94-1.1A2.67,2.67,0,0,1,13.3,19,2.83,2.83,0,0,0,14.5,19a2.67,2.67,0,0,1-2.13-2.64,2.6,2.6,0,0,0,1.21.33,2.65,2.65,0,0,1-.83-3.54,7.56,7.56,0,0,0,5.48,2.77,2.66,2.66,0,0,1,4.53-2.42,5.2,5.2,0,0,0,1.68-.65,2.59,2.59,0,0,1-1.16,1.47,5.18,5.18,0,0,0,1.52-.41A5.21,5.21,0,0,1,23.48,15.25Z"/></g></g></svg>